<mxfile host="app.diagrams.net" modified="2023-06-24T06:49:41.164Z" agent="Mozilla/5.0 (Windows NT 10.0; Win64; x64; rv:109.0) Gecko/20100101 Firefox/114.0" etag="aZNOpzp5a4nnflAPc1lo" version="21.5.0" type="device">
  <diagram name="Страница 1" id="mtEfXiIfwF3yYjkwGetF">
    <mxGraphModel dx="1960" dy="1730" grid="1" gridSize="10" guides="1" tooltips="1" connect="1" arrows="1" fold="1" page="1" pageScale="1" pageWidth="827" pageHeight="1169" math="0" shadow="0">
      <root>
        <mxCell id="0" />
        <mxCell id="1" parent="0" />
        <mxCell id="9y3Q9n9kLhdWDRZbS-CB-14" style="edgeStyle=orthogonalEdgeStyle;rounded=0;orthogonalLoop=1;jettySize=auto;html=1;exitX=0.5;exitY=0.5;exitDx=0;exitDy=0;exitPerimeter=0;entryX=0;entryY=0.5;entryDx=0;entryDy=0;entryPerimeter=0;endArrow=open;endFill=0;" parent="1" source="9y3Q9n9kLhdWDRZbS-CB-1" target="9y3Q9n9kLhdWDRZbS-CB-12" edge="1">
          <mxGeometry relative="1" as="geometry" />
        </mxCell>
        <mxCell id="9y3Q9n9kLhdWDRZbS-CB-1" value="&lt;div&gt;User&lt;/div&gt;&lt;div&gt;&lt;br&gt;&lt;/div&gt;" style="shape=umlActor;verticalLabelPosition=bottom;verticalAlign=top;html=1;outlineConnect=0;" parent="1" vertex="1">
          <mxGeometry x="120" y="190" width="30" height="60" as="geometry" />
        </mxCell>
        <mxCell id="9y3Q9n9kLhdWDRZbS-CB-18" style="edgeStyle=orthogonalEdgeStyle;rounded=0;orthogonalLoop=1;jettySize=auto;html=1;exitX=0;exitY=0;exitDx=160;exitDy=30;exitPerimeter=0;endArrow=open;endFill=0;" parent="1" source="9y3Q9n9kLhdWDRZbS-CB-12" edge="1">
          <mxGeometry relative="1" as="geometry">
            <mxPoint x="442" y="205" as="targetPoint" />
          </mxGeometry>
        </mxCell>
        <mxCell id="9y3Q9n9kLhdWDRZbS-CB-12" value="Вхід у мобільний застосунок" style="shape=note;whiteSpace=wrap;html=1;backgroundOutline=1;darkOpacity=0.05;" parent="1" vertex="1">
          <mxGeometry x="230" y="150" width="160" height="70" as="geometry" />
        </mxCell>
        <mxCell id="9y3Q9n9kLhdWDRZbS-CB-17" value="Прогноз погоди" style="shape=umlFrame;whiteSpace=wrap;html=1;pointerEvents=0;" parent="1" vertex="1">
          <mxGeometry x="440" y="90" width="620" height="370" as="geometry" />
        </mxCell>
        <mxCell id="9y3Q9n9kLhdWDRZbS-CB-22" style="edgeStyle=orthogonalEdgeStyle;rounded=0;orthogonalLoop=1;jettySize=auto;html=1;exitX=0;exitY=0.5;exitDx=0;exitDy=0;endArrow=none;endFill=0;entryX=0.001;entryY=0.572;entryDx=0;entryDy=0;entryPerimeter=0;startArrow=open;startFill=0;" parent="1" target="9y3Q9n9kLhdWDRZbS-CB-17" edge="1">
          <mxGeometry relative="1" as="geometry">
            <mxPoint x="470" y="200" as="targetPoint" />
            <Array as="points">
              <mxPoint x="470" y="160" />
              <mxPoint x="470" y="210" />
              <mxPoint x="440" y="210" />
            </Array>
            <mxPoint x="490" y="160" as="sourcePoint" />
          </mxGeometry>
        </mxCell>
        <mxCell id="9y3Q9n9kLhdWDRZbS-CB-31" style="edgeStyle=orthogonalEdgeStyle;rounded=0;orthogonalLoop=1;jettySize=auto;html=1;exitX=1;exitY=0.5;exitDx=0;exitDy=0;entryX=0;entryY=0.5;entryDx=0;entryDy=0;dashed=1;dashPattern=8 8;endArrow=open;endFill=0;" parent="1" source="9y3Q9n9kLhdWDRZbS-CB-32" target="9y3Q9n9kLhdWDRZbS-CB-30" edge="1">
          <mxGeometry relative="1" as="geometry" />
        </mxCell>
        <mxCell id="9y3Q9n9kLhdWDRZbS-CB-24" value="Ввести запрос на будь-яке місто" style="ellipse;whiteSpace=wrap;html=1;" parent="1" vertex="1">
          <mxGeometry x="490" y="130" width="120" height="60" as="geometry" />
        </mxCell>
        <mxCell id="9y3Q9n9kLhdWDRZbS-CB-37" style="edgeStyle=orthogonalEdgeStyle;rounded=0;orthogonalLoop=1;jettySize=auto;html=1;exitX=0.5;exitY=0;exitDx=0;exitDy=0;entryX=0.5;entryY=1;entryDx=0;entryDy=0;dashed=1;dashPattern=8 8;endArrow=open;endFill=0;" parent="1" source="9y3Q9n9kLhdWDRZbS-CB-42" target="9y3Q9n9kLhdWDRZbS-CB-35" edge="1">
          <mxGeometry relative="1" as="geometry">
            <Array as="points" />
          </mxGeometry>
        </mxCell>
        <mxCell id="9y3Q9n9kLhdWDRZbS-CB-38" style="edgeStyle=orthogonalEdgeStyle;rounded=0;orthogonalLoop=1;jettySize=auto;html=1;exitX=0.5;exitY=0;exitDx=0;exitDy=0;entryX=0.5;entryY=1;entryDx=0;entryDy=0;dashed=1;dashPattern=8 8;endArrow=open;endFill=0;" parent="1" source="9y3Q9n9kLhdWDRZbS-CB-39" target="9y3Q9n9kLhdWDRZbS-CB-36" edge="1">
          <mxGeometry relative="1" as="geometry" />
        </mxCell>
        <mxCell id="9y3Q9n9kLhdWDRZbS-CB-30" value="Перегляд погодних умов" style="ellipse;whiteSpace=wrap;html=1;" parent="1" vertex="1">
          <mxGeometry x="745" y="305" width="120" height="60" as="geometry" />
        </mxCell>
        <mxCell id="9y3Q9n9kLhdWDRZbS-CB-33" value="" style="edgeStyle=orthogonalEdgeStyle;rounded=0;orthogonalLoop=1;jettySize=auto;html=1;exitX=1;exitY=0.5;exitDx=0;exitDy=0;entryX=0;entryY=0.5;entryDx=0;entryDy=0;dashed=1;dashPattern=8 8;endArrow=none;endFill=0;" parent="1" source="9y3Q9n9kLhdWDRZbS-CB-24" target="9y3Q9n9kLhdWDRZbS-CB-32" edge="1">
          <mxGeometry relative="1" as="geometry">
            <mxPoint x="650" y="320" as="sourcePoint" />
            <mxPoint x="740" y="330" as="targetPoint" />
            <Array as="points">
              <mxPoint x="630" y="160" />
              <mxPoint x="630" y="245" />
            </Array>
          </mxGeometry>
        </mxCell>
        <mxCell id="9y3Q9n9kLhdWDRZbS-CB-32" value="&amp;lt;&amp;lt;include&amp;gt;&amp;gt;" style="text;html=1;align=center;verticalAlign=middle;resizable=0;points=[];autosize=1;strokeColor=none;fillColor=none;" parent="1" vertex="1">
          <mxGeometry x="590" y="270" width="90" height="30" as="geometry" />
        </mxCell>
        <mxCell id="9y3Q9n9kLhdWDRZbS-CB-35" value="Перегляд погоди&lt;br&gt;на сьогодні" style="ellipse;whiteSpace=wrap;html=1;" parent="1" vertex="1">
          <mxGeometry x="707" y="120" width="120" height="60" as="geometry" />
        </mxCell>
        <mxCell id="9y3Q9n9kLhdWDRZbS-CB-36" value="Перегляд щотижневого прогнозу" style="ellipse;whiteSpace=wrap;html=1;" parent="1" vertex="1">
          <mxGeometry x="920" y="130" width="120" height="60" as="geometry" />
        </mxCell>
        <mxCell id="9y3Q9n9kLhdWDRZbS-CB-41" value="" style="edgeStyle=orthogonalEdgeStyle;rounded=0;orthogonalLoop=1;jettySize=auto;html=1;exitX=0.5;exitY=0;exitDx=0;exitDy=0;entryX=0.5;entryY=1;entryDx=0;entryDy=0;dashed=1;dashPattern=8 8;endArrow=none;endFill=0;" parent="1" source="9y3Q9n9kLhdWDRZbS-CB-30" target="9y3Q9n9kLhdWDRZbS-CB-39" edge="1">
          <mxGeometry relative="1" as="geometry">
            <mxPoint x="870" y="305" as="sourcePoint" />
            <mxPoint x="980" y="215" as="targetPoint" />
            <Array as="points">
              <mxPoint x="870" y="280" />
              <mxPoint x="925" y="280" />
            </Array>
          </mxGeometry>
        </mxCell>
        <mxCell id="9y3Q9n9kLhdWDRZbS-CB-39" value="&amp;lt;&amp;lt;include&amp;gt;&amp;gt;" style="text;html=1;align=center;verticalAlign=middle;resizable=0;points=[];autosize=1;strokeColor=none;fillColor=none;" parent="1" vertex="1">
          <mxGeometry x="880" y="240" width="90" height="30" as="geometry" />
        </mxCell>
        <mxCell id="9y3Q9n9kLhdWDRZbS-CB-44" value="" style="edgeStyle=orthogonalEdgeStyle;rounded=0;orthogonalLoop=1;jettySize=auto;html=1;exitX=0.5;exitY=0;exitDx=0;exitDy=0;entryX=0.5;entryY=1;entryDx=0;entryDy=0;dashed=1;dashPattern=8 8;endArrow=none;endFill=0;" parent="1" source="9y3Q9n9kLhdWDRZbS-CB-30" target="9y3Q9n9kLhdWDRZbS-CB-42" edge="1">
          <mxGeometry relative="1" as="geometry">
            <mxPoint x="870" y="305" as="sourcePoint" />
            <mxPoint x="767" y="200" as="targetPoint" />
            <Array as="points" />
          </mxGeometry>
        </mxCell>
        <mxCell id="9y3Q9n9kLhdWDRZbS-CB-42" value="&amp;lt;&amp;lt;include&amp;gt;&amp;gt;" style="text;html=1;align=center;verticalAlign=middle;resizable=0;points=[];autosize=1;strokeColor=none;fillColor=none;" parent="1" vertex="1">
          <mxGeometry x="760" y="230" width="90" height="30" as="geometry" />
        </mxCell>
        <mxCell id="9y3Q9n9kLhdWDRZbS-CB-47" value="" style="shape=step;perimeter=stepPerimeter;whiteSpace=wrap;html=1;fixedSize=1;" parent="1" vertex="1">
          <mxGeometry x="630" y="-620" width="120" height="80" as="geometry" />
        </mxCell>
        <mxCell id="9y3Q9n9kLhdWDRZbS-CB-48" value="" style="shape=step;perimeter=stepPerimeter;whiteSpace=wrap;html=1;fixedSize=1;" parent="1" vertex="1">
          <mxGeometry x="-290" y="205" width="120" height="80" as="geometry" />
        </mxCell>
        <mxCell id="9y3Q9n9kLhdWDRZbS-CB-49" value="" style="shape=step;perimeter=stepPerimeter;whiteSpace=wrap;html=1;fixedSize=1;" parent="1" vertex="1">
          <mxGeometry x="760" y="1020" width="120" height="80" as="geometry" />
        </mxCell>
        <mxCell id="9y3Q9n9kLhdWDRZbS-CB-50" value="" style="shape=step;perimeter=stepPerimeter;whiteSpace=wrap;html=1;fixedSize=1;" parent="1" vertex="1">
          <mxGeometry x="1750" y="190" width="120" height="80" as="geometry" />
        </mxCell>
      </root>
    </mxGraphModel>
  </diagram>
</mxfile>
